{
  "source": "C:\\Users\\Peter\\Desktop\\stuff\\MIUN\\quantitative_research\\video_compression\\videos\\BVI-HD\\Hamster_1920x1080_60fps.mp4",
  "output": "C:\\Users\\Peter\\Desktop\\stuff\\MIUN\\quantitative_research\\video_compression\\compressed_videos\\BVI-HD\\vp9\\12\\Hamster_1920x1080_60fps_vp9.webm",
  "codec": "vp9",
  "ok": "Input #0, mov,mp4,m4a,3gp,3g2,mj2, from 'C:\\Users\\Peter\\Desktop\\stuff\\MIUN\\quantitative_research\\video_compression\\videos\\BVI-HD\\Hamster_1920x1080_60fps.mp4':\n  Metadata:\n    major_brand     : isom\n    minor_version   : 512\n    compatible_brands: isomiso2avc1mp41\n    encoder         : Lavf54.28.101\n  Duration: 00:00:05.00, start: 0.000000, bitrate: 208485 kb/s\n  Stream #0:0[0x1](und): Video: h264 (High 4:4:4 Predictive) (avc1 / 0x31637661), yuv420p(progressive), 1920x1080, 208481 kb/s, 60 fps, 60 tbr, 60 tbn (default)\n    Metadata:\n      handler_name    : VideoHandler\n      vendor_id       : [0][0][0][0]\n[out#0/webm @ 000001e95b2a9540] Codec AVOption b:a (set bitrate (in bits/s)) has not been used for any stream. The most likely reason is either wrong type (e.g. a video option with no video streams) or that it is a private option of some decoder which was not actually used for any stream.\nStream mapping:\n  Stream #0:0 -> #0:0 (h264 (native) -> vp9 (libvpx-vp9))\nPress [q] to stop, [?] for help\n[libvpx-vp9 @ 000001e95b33e380] v1.15.2-100-g40561f514\nOutput #0, webm, to 'C:\\Users\\Peter\\Desktop\\stuff\\MIUN\\quantitative_research\\video_compression\\compressed_videos\\BVI-HD\\vp9\\12\\Hamster_1920x1080_60fps_vp9.webm':\n  Metadata:\n    major_brand     : isom\n    minor_version   : 512\n    compatible_brands: isomiso2avc1mp41\n    encoder         : Lavf62.3.100\n  Stream #0:0(und): Video: vp9, yuv420p(tv, progressive), 1920x1080, q=2-31, 12000 kb/s, 60 fps, 1k tbn (default)\n    Metadata:\n      encoder         : Lavc62.11.100 libvpx-vp9\n      handler_name    : VideoHandler\n      vendor_id       : [0][0][0][0]\n    Side data:\n      cpb: bitrate max/min/avg: 0/0/0 buffer size: 12000000 vbv_delay: N/A\nframe=    0 fps=0.0 q=0.0 size=       0KiB time=N/A bitrate=N/A speed=N/A elapsed=0:00:00.52    \nframe=    3 fps=2.9 q=41.0 size=       1KiB time=00:00:00.05 bitrate= 101.3kbits/s speed=0.0477x elapsed=0:00:01.04    \nframe=    8 fps=5.0 q=25.0 size=       1KiB time=00:00:00.13 bitrate=  38.0kbits/s speed=0.0841x elapsed=0:00:01.58    \nframe=   11 fps=5.2 q=27.0 size=       1KiB time=00:00:00.18 bitrate=  27.6kbits/s speed=0.0865x elapsed=0:00:02.11    \nframe=   14 fps=5.3 q=27.0 size=       1KiB time=00:00:00.23 bitrate=  21.7kbits/s speed=0.0885x elapsed=0:00:02.63    \nframe=   17 fps=5.4 q=26.0 size=       1KiB time=00:00:00.28 bitrate=  17.9kbits/s speed=0.0895x elapsed=0:00:03.16    \nframe=   20 fps=5.4 q=26.0 size=       1KiB time=00:00:00.33 bitrate=  15.2kbits/s speed=0.0895x elapsed=0:00:03.72    \nframe=   23 fps=5.4 q=26.0 size=       1KiB time=00:00:00.38 bitrate=  13.2kbits/s speed=0.0892x elapsed=0:00:04.29    \nframe=   26 fps=5.4 q=26.0 size=       1KiB time=00:00:00.43 bitrate=  11.7kbits/s speed=0.0896x elapsed=0:00:04.83    \nframe=   30 fps=5.6 q=27.0 size=       1KiB time=00:00:00.50 bitrate=  10.1kbits/s speed=0.0933x elapsed=0:00:05.35    \nframe=   34 fps=5.8 q=28.0 size=       1KiB time=00:00:00.56 bitrate=   8.9kbits/s speed=0.0963x elapsed=0:00:05.88    \nframe=   38 fps=5.9 q=26.0 size=       1KiB time=00:00:00.63 bitrate=   8.0kbits/s speed=0.0986x elapsed=0:00:06.42    \nframe=   43 fps=6.2 q=26.0 size=       1KiB time=00:00:00.71 bitrate=   7.1kbits/s speed=0.103x elapsed=0:00:06.95    \nframe=   47 fps=6.3 q=26.0 size=       1KiB time=00:00:00.78 bitrate=   6.5kbits/s speed=0.104x elapsed=0:00:07.50    \nframe=   49 fps=6.1 q=11.0 size=       1KiB time=00:00:00.81 bitrate=   6.2kbits/s speed=0.102x elapsed=0:00:08.03    \nframe=   51 fps=6.0 q=25.0 size=       1KiB time=00:00:00.85 bitrate=   6.0kbits/s speed=0.0992x elapsed=0:00:08.56    \nframe=   53 fps=5.8 q=25.0 size=       1KiB time=00:00:00.88 bitrate=   5.7kbits/s speed=0.0972x elapsed=0:00:09.08    \nframe=   56 fps=5.8 q=25.0 size=       1KiB time=00:00:00.93 bitrate=   5.4kbits/s speed=0.097x elapsed=0:00:09.62    \nframe=   59 fps=5.8 q=25.0 size=       1KiB time=00:00:00.98 bitrate=   5.1kbits/s speed=0.097x elapsed=0:00:10.14    \nframe=   63 fps=5.9 q=24.0 size=       1KiB time=00:00:01.05 bitrate=   4.8kbits/s speed=0.0984x elapsed=0:00:10.66    \nframe=   67 fps=6.0 q=25.0 size=       1KiB time=00:00:01.11 bitrate=   4.5kbits/s speed=0.0998x elapsed=0:00:11.18    \nframe=   71 fps=6.1 q=26.0 size=       1KiB time=00:00:01.18 bitrate=   4.3kbits/s speed=0.101x elapsed=0:00:11.71    \nframe=   75 fps=6.1 q=26.0 size=       1KiB time=00:00:01.25 bitrate=   4.1kbits/s speed=0.102x elapsed=0:00:12.27    \nframe=   78 fps=6.1 q=26.0 size=       1KiB time=00:00:01.30 bitrate=   3.9kbits/s speed=0.101x elapsed=0:00:12.82    \nframe=   82 fps=6.1 q=28.0 size=       1KiB time=00:00:01.36 bitrate=   3.7kbits/s speed=0.102x elapsed=0:00:13.36    \nframe=   85 fps=6.1 q=13.0 size=       1KiB time=00:00:01.41 bitrate=   3.6kbits/s speed=0.102x elapsed=0:00:13.88    \nframe=   89 fps=6.2 q=27.0 size=       1KiB time=00:00:01.48 bitrate=   3.4kbits/s speed=0.103x elapsed=0:00:14.40    \nframe=   92 fps=6.2 q=28.0 size=       1KiB time=00:00:01.53 bitrate=   3.3kbits/s speed=0.103x elapsed=0:00:14.95    \nframe=   95 fps=6.1 q=28.0 size=       1KiB time=00:00:01.58 bitrate=   3.2kbits/s speed=0.102x elapsed=0:00:15.51    \nframe=   97 fps=6.0 q=15.0 size=       1KiB time=00:00:01.61 bitrate=   3.1kbits/s speed=0.101x elapsed=0:00:16.06    \nframe=  101 fps=6.1 q=32.0 size=       1KiB time=00:00:01.66 bitrate=   3.0kbits/s speed= 0.1x elapsed=0:00:16.58    \nframe=  104 fps=6.1 q=32.0 size=       1KiB time=00:00:01.73 bitrate=   2.9kbits/s speed=0.101x elapsed=0:00:17.15    \nframe=  108 fps=6.1 q=31.0 size=       1KiB time=00:00:01.80 bitrate=   2.8kbits/s speed=0.102x elapsed=0:00:17.67    \nframe=  110 fps=6.0 q=31.0 size=       1KiB time=00:00:01.83 bitrate=   2.8kbits/s speed=0.101x elapsed=0:00:18.22    \nframe=  113 fps=6.0 q=30.0 size=       1KiB time=00:00:01.88 bitrate=   2.7kbits/s speed= 0.1x elapsed=0:00:18.78    \nframe=  116 fps=6.0 q=31.0 size=       1KiB time=00:00:01.93 bitrate=   2.6kbits/s speed= 0.1x elapsed=0:00:19.32    \nframe=  120 fps=6.0 q=30.0 size=       1KiB time=00:00:02.00 bitrate=   2.5kbits/s speed=0.101x elapsed=0:00:19.89    \nframe=  124 fps=6.1 q=28.0 size=       1KiB time=00:00:02.06 bitrate=   2.5kbits/s speed=0.101x elapsed=0:00:20.45    \nframe=  127 fps=6.0 q=29.0 size=       1KiB time=00:00:02.11 bitrate=   2.4kbits/s speed=0.101x elapsed=0:00:21.00    \nframe=  130 fps=6.0 q=31.0 size=    2304KiB time=00:00:02.16 bitrate=8711.2kbits/s speed=0.101x elapsed=0:00:21.54    \nframe=  134 fps=6.1 q=30.0 size=    2304KiB time=00:00:02.23 bitrate=8451.2kbits/s speed=0.101x elapsed=0:00:22.11    \nframe=  137 fps=6.0 q=26.0 size=    2304KiB time=00:00:02.28 bitrate=8266.1kbits/s speed=0.101x elapsed=0:00:22.65    \nframe=  141 fps=6.1 q=26.0 size=    2304KiB time=00:00:02.35 bitrate=8031.6kbits/s speed=0.101x elapsed=0:00:23.18    \nframe=  144 fps=6.1 q=26.0 size=    2304KiB time=00:00:02.40 bitrate=7864.3kbits/s speed=0.101x elapsed=0:00:23.72    \nframe=  146 fps=6.0 q=13.0 size=    2304KiB time=00:00:02.43 bitrate=7756.6kbits/s speed= 0.1x elapsed=0:00:24.26    \nframe=  149 fps=6.0 q=28.0 size=    2304KiB time=00:00:02.48 bitrate=7600.4kbits/s speed= 0.1x elapsed=0:00:24.82    \nframe=  152 fps=6.0 q=15.0 size=    2304KiB time=00:00:02.53 bitrate=7450.4kbits/s speed=0.0998x elapsed=0:00:25.39    \nframe=  155 fps=6.0 q=28.0 size=    2304KiB time=00:00:02.58 bitrate=7306.2kbits/s speed=0.0995x elapsed=0:00:25.97    \nframe=  157 fps=5.9 q=28.0 size=    2304KiB time=00:00:02.61 bitrate=7213.1kbits/s speed=0.0985x elapsed=0:00:26.55    \nframe=  160 fps=5.9 q=28.0 size=    2304KiB time=00:00:02.66 bitrate=7077.9kbits/s speed=0.0983x elapsed=0:00:27.14    \nframe=  162 fps=5.8 q=28.0 size=    2304KiB time=00:00:02.70 bitrate=6990.5kbits/s speed=0.0971x elapsed=0:00:27.81    \nframe=  164 fps=5.8 q=15.0 size=    2304KiB time=00:00:02.71 bitrate=6947.6kbits/s speed=0.0956x elapsed=0:00:28.42    \nframe=  167 fps=5.7 q=28.0 size=    2304KiB time=00:00:02.76 bitrate=6822.1kbits/s speed=0.0952x elapsed=0:00:29.06    \nframe=  169 fps=5.7 q=28.0 size=    2304KiB time=00:00:02.81 bitrate=6701.0kbits/s speed=0.0947x elapsed=0:00:29.73    \nframe=  171 fps=5.6 q=28.0 size=    2304KiB time=00:00:02.85 bitrate=6622.6kbits/s speed=0.094x elapsed=0:00:30.33    \nframe=  174 fps=5.6 q=27.0 size=    2304KiB time=00:00:02.90 bitrate=6508.4kbits/s speed=0.0937x elapsed=0:00:30.94    \nframe=  175 fps=5.6 q=27.0 size=    2304KiB time=00:00:02.91 bitrate=6471.2kbits/s speed=0.0925x elapsed=0:00:31.52    \nframe=  177 fps=5.5 q=27.0 size=    2304KiB time=00:00:02.95 bitrate=6398.1kbits/s speed=0.092x elapsed=0:00:32.06    \nframe=  179 fps=5.5 q=27.0 size=    2304KiB time=00:00:02.98 bitrate=6326.6kbits/s speed=0.0914x elapsed=0:00:32.62    \nframe=  181 fps=5.5 q=28.0 size=    2304KiB time=00:00:03.01 bitrate=6256.7kbits/s speed=0.091x elapsed=0:00:33.16    \nframe=  184 fps=5.5 q=28.0 size=    2304KiB time=00:00:03.05 bitrate=6188.3kbits/s speed=0.0904x elapsed=0:00:33.75    \nframe=  186 fps=5.4 q=28.0 size=    2304KiB time=00:00:03.10 bitrate=6088.5kbits/s speed=0.0902x elapsed=0:00:34.35    \nframe=  189 fps=5.4 q=28.0 size=    2304KiB time=00:00:03.13 bitrate=6023.7kbits/s speed=0.0897x elapsed=0:00:34.91    \nframe=  191 fps=5.4 q=28.0 size=    2304KiB time=00:00:03.18 bitrate=5929.1kbits/s speed=0.0896x elapsed=0:00:35.53    \nframe=  193 fps=5.3 q=28.0 size=    2304KiB time=00:00:03.21 bitrate=5867.7kbits/s speed=0.089x elapsed=0:00:36.14    \nframe=  195 fps=5.3 q=28.0 size=    2304KiB time=00:00:03.25 bitrate=5807.5kbits/s speed=0.0883x elapsed=0:00:36.81    \nframe=  197 fps=5.3 q=28.0 size=    2304KiB time=00:00:03.28 bitrate=5748.5kbits/s speed=0.0877x elapsed=0:00:37.45    \nframe=  199 fps=5.2 q=28.0 size=    2304KiB time=00:00:03.31 bitrate=5690.8kbits/s speed=0.0871x elapsed=0:00:38.07    \nframe=  202 fps=5.2 q=28.0 size=    2304KiB time=00:00:03.35 bitrate=5634.1kbits/s speed=0.0867x elapsed=0:00:38.65    \nframe=  204 fps=5.2 q=29.0 size=    2304KiB time=00:00:03.40 bitrate=5551.3kbits/s speed=0.0866x elapsed=0:00:39.28    \nframe=  206 fps=5.2 q=16.0 size=    2304KiB time=00:00:03.43 bitrate=5497.4kbits/s speed=0.086x elapsed=0:00:39.90    \nframe=  209 fps=5.2 q=31.0 size=    2304KiB time=00:00:03.48 bitrate=5418.5kbits/s speed=0.0861x elapsed=0:00:40.45    \nframe=  210 fps=5.1 q=31.0 size=    2304KiB time=00:00:03.50 bitrate=5392.7kbits/s speed=0.0854x elapsed=0:00:40.98    \nframe=  211 fps=5.1 q=31.0 size=    2304KiB time=00:00:03.51 bitrate=5367.1kbits/s speed=0.0847x elapsed=0:00:41.49    \nframe=  214 fps=5.1 q=32.0 size=    2304KiB time=00:00:03.56 bitrate=5291.9kbits/s speed=0.0849x elapsed=0:00:42.03    \nframe=  216 fps=5.1 q=33.0 size=    2304KiB time=00:00:03.60 bitrate=5242.9kbits/s speed=0.0845x elapsed=0:00:42.58    \nframe=  218 fps=5.1 q=20.0 size=    2304KiB time=00:00:03.63 bitrate=5194.8kbits/s speed=0.0843x elapsed=0:00:43.09    \nframe=  221 fps=5.1 q=35.0 size=    2304KiB time=00:00:03.68 bitrate=5124.3kbits/s speed=0.0844x elapsed=0:00:43.63    \nframe=  223 fps=5.0 q=35.0 size=    2304KiB time=00:00:03.71 bitrate=5078.3kbits/s speed=0.084x elapsed=0:00:44.24    \nframe=  225 fps=5.0 q=35.0 size=    2304KiB time=00:00:03.75 bitrate=5033.2kbits/s speed=0.0836x elapsed=0:00:44.83    \nframe=  227 fps=5.0 q=35.0 size=    2304KiB time=00:00:03.76 bitrate=5010.9kbits/s speed=0.083x elapsed=0:00:45.37    \nframe=  228 fps=5.0 q=36.0 size=    2304KiB time=00:00:03.80 bitrate=4966.9kbits/s speed=0.0827x elapsed=0:00:45.95    \nframe=  230 fps=4.9 q=24.0 size=    2304KiB time=00:00:03.83 bitrate=4923.7kbits/s speed=0.0824x elapsed=0:00:46.50    \nframe=  233 fps=5.0 q=36.0 size=    2304KiB time=00:00:03.88 bitrate=4860.4kbits/s speed=0.0825x elapsed=0:00:47.05    \nframe=  236 fps=5.0 q=24.0 size=    2304KiB time=00:00:03.93 bitrate=4798.6kbits/s speed=0.0826x elapsed=0:00:47.59    \nframe=  239 fps=5.0 q=35.0 size=    2304KiB time=00:00:03.98 bitrate=4738.3kbits/s speed=0.0828x elapsed=0:00:48.12    \nframe=  241 fps=4.9 q=35.0 size=    2304KiB time=00:00:04.01 bitrate=4699.0kbits/s speed=0.0825x elapsed=0:00:48.71    \nframe=  244 fps=5.0 q=35.0 size=    2304KiB time=00:00:04.06 bitrate=4641.2kbits/s speed=0.0825x elapsed=0:00:49.26    \nframe=  247 fps=5.0 q=34.0 size=    2304KiB time=00:00:04.11 bitrate=4584.9kbits/s speed=0.0826x elapsed=0:00:49.85    \nframe=  250 fps=5.0 q=31.0 size=    2304KiB time=00:00:04.16 bitrate=4529.8kbits/s speed=0.0826x elapsed=0:00:50.45    \nframe=  253 fps=5.0 q=30.0 size=    2304KiB time=00:00:04.21 bitrate=4476.1kbits/s speed=0.0827x elapsed=0:00:51.00    \nframe=  256 fps=5.0 q=29.0 size=    2304KiB time=00:00:04.26 bitrate=4423.7kbits/s speed=0.0827x elapsed=0:00:51.57    \nframe=  261 fps=5.0 q=30.0 size=    5120KiB time=00:00:04.35 bitrate=9642.1kbits/s speed=0.0835x elapsed=0:00:52.11    \nframe=  265 fps=5.0 q=28.0 size=    5120KiB time=00:00:04.41 bitrate=9496.5kbits/s speed=0.0839x elapsed=0:00:52.65    \nframe=  268 fps=5.0 q=28.0 size=    5120KiB time=00:00:04.46 bitrate=9390.2kbits/s speed=0.084x elapsed=0:00:53.18    \nframe=  272 fps=5.1 q=27.0 size=    5120KiB time=00:00:04.53 bitrate=9252.1kbits/s speed=0.0844x elapsed=0:00:53.72    \nframe=  276 fps=5.1 q=26.0 size=    5120KiB time=00:00:04.60 bitrate=9118.1kbits/s speed=0.0848x elapsed=0:00:54.22    \nframe=  276 fps=5.0 q=26.0 size=    5120KiB time=00:00:04.60 bitrate=9118.1kbits/s speed=0.084x elapsed=0:00:54.75    \nframe=  276 fps=5.0 q=26.0 size=    5120KiB time=00:00:04.60 bitrate=9118.1kbits/s speed=0.0832x elapsed=0:00:55.28    \nframe=  276 fps=4.9 q=26.0 size=    5120KiB time=00:00:04.60 bitrate=9118.1kbits/s speed=0.0824x elapsed=0:00:55.82    \nframe=  276 fps=4.9 q=26.0 size=    5120KiB time=00:00:04.60 bitrate=9118.1kbits/s speed=0.0816x elapsed=0:00:56.38    \nframe=  276 fps=4.8 q=26.0 size=    5120KiB time=00:00:04.60 bitrate=9118.1kbits/s speed=0.0808x elapsed=0:00:56.93    \nframe=  276 fps=4.8 q=26.0 size=    5120KiB time=00:00:04.60 bitrate=9118.1kbits/s speed=0.0801x elapsed=0:00:57.45    \n[out#0/webm @ 000001e95b2a9540] video:6044KiB audio:0KiB subtitle:0KiB other streams:0KiB global headers:0KiB muxing overhead: 0.047939%\nframe=  300 fps=5.2 q=23.0 Lsize=    6047KiB time=00:00:05.00 bitrate=9907.3kbits/s speed=0.0868x elapsed=0:00:57.57    \n",
  "seconds": 57.9552218914032,
  "probe_out": {}
}